<svg xmlns="http://www.w3.org/2000/svg" xmlns:xlink="http://www.w3.org/1999/xlink" width="375.635" height="107.538" viewBox="0 0 375.635 107.538">
  <defs>
    <linearGradient id="linear-gradient" x1="1" y1="-3.693" x2="7.839" y2="1.966" gradientUnits="objectBoundingBox">
      <stop offset="0" stop-color="#2051d5"/>
      <stop offset="1" stop-color="#143283"/>
    </linearGradient>
    <linearGradient id="linear-gradient-6" x1="-0.026" y1="-0.018" x2="1" y2="1.02" xlink:href="#linear-gradient"/>
  </defs>
  <g id="edemand_logo" transform="translate(136.007 -113.844)">
    <g id="Group_2223" data-name="Group 2223" transform="translate(-199.794 114)">
      <path id="Path_8" data-name="Path 8" d="M651.529,224.142a26.012,26.012,0,0,0,0-13.92h10.915a2.686,2.686,0,0,0,2.6-3.376,39.776,39.776,0,1,0-38.415,50.107h21.308a4.473,4.473,0,0,1,4.473,4.473V266.4a4.473,4.473,0,0,1-4.473,4.473H626.264a53.363,53.363,0,0,1-53.327-53.932v-.073a53.69,53.69,0,0,1,107.38.314q0,1.4-.07,2.775a4.426,4.426,0,0,1-4.429,4.185Z" transform="translate(-509.147 -163.491)" fill="url(#linear-gradient)"/>
      <path id="Path_9" data-name="Path 9" d="M731.525,277.322a25.852,25.852,0,0,1-46.546,15.493,2.222,2.222,0,0,1,1.77-3.562h16.936l3.977-3.977V269.368l-3.977-3.977H686.68a2.188,2.188,0,0,1-1.742-3.507,25.844,25.844,0,0,1,46.588,15.438Z" transform="translate(-585.407 -223.631)" fill="url(#linear-gradient)"/>
      <path id="Path_10" data-name="Path 10" d="M722.692,277.322a25.851,25.851,0,0,1-46.53,15.514,2.229,2.229,0,0,1,1.765-3.582H692.04a6.789,6.789,0,0,0,4.8-1.988h0a6.79,6.79,0,0,0,1.988-4.8V272.18a6.79,6.79,0,0,0-1.988-4.8h0a6.791,6.791,0,0,0-4.8-1.988H677.847a2.184,2.184,0,0,1-1.768-3.472,25.844,25.844,0,0,1,46.613,15.4Z" transform="translate(-576.573 -223.631)" fill="url(#linear-gradient)"/>
      <g id="Group_2" data-name="Group 2" transform="translate(153.858 78.02)">
        <path id="Rectangle_1" data-name="Rectangle 1" d="M8.656,0h0a8.656,8.656,0,0,1,8.656,8.656v1.712A3.208,3.208,0,0,1,14.1,13.575H3.208A3.208,3.208,0,0,1,0,10.368V8.656A8.656,8.656,0,0,1,8.656,0Z" transform="translate(0 15.787)" fill="url(#linear-gradient)"/>
        <rect id="Rectangle_2" data-name="Rectangle 2" width="11.47" height="11.47" rx="5.735" transform="translate(2.921)" fill="url(#linear-gradient)"/>
      </g>
      <g id="Group_2224" data-name="Group 2224" transform="translate(765.787 557.844)">
        <path id="Path_11291" data-name="Path 11291" d="M67.514,55.64a2.841,2.841,0,1,0,2.841,2.843A2.841,2.841,0,0,0,67.514,55.64Zm0,4.259a1.42,1.42,0,1,1,1.418-1.416A1.42,1.42,0,0,1,67.514,59.9Z" transform="translate(-727.037 -562.652)" fill="url(#linear-gradient-6)"/>
        <path id="Path_11292" data-name="Path 11292" d="M76.053,62.015l-.316-.182a6.492,6.492,0,0,0,0-2.335l.316-.18a2.136,2.136,0,0,0-2.129-3.7l-.316.182a6.366,6.366,0,0,0-2.021-1.166v-.362a2.136,2.136,0,0,0-4.259,0v.37a6.355,6.355,0,0,0-2.021,1.168l-.312-.182a2.136,2.136,0,0,0-2.136,3.693h0l.316.18a6.492,6.492,0,0,0,0,2.335l-.316.182a2.136,2.136,0,1,0,2.136,3.691h0l.317-.179A6.388,6.388,0,0,0,67.334,66.7v.363a2.136,2.136,0,1,0,4.259,0V66.7a6.409,6.409,0,0,0,2.021-1.169l.319.183a2.136,2.136,0,0,0,2.136-3.693h0Zm-1.808-2.68a5.017,5.017,0,0,1,0,2.662.707.707,0,0,0,.329.8l.772.446a.712.712,0,1,1-.712,1.233h0l-.772-.448a.712.712,0,0,0-.862.119,4.955,4.955,0,0,1-2.3,1.331.71.71,0,0,0-.532.689v.888a.712.712,0,1,1-1.42,0v-.892a.71.71,0,0,0-.532-.689,4.954,4.954,0,0,1-2.3-1.334.712.712,0,0,0-.862-.118l-.772.446a.71.71,0,0,1-.718-1.225h0l.772-.446a.71.71,0,0,0,.329-.8,5.013,5.013,0,0,1,0-2.661.708.708,0,0,0-.329-.8l-.77-.446a.711.711,0,0,1,.71-1.233l.772.448a.712.712,0,0,0,.862-.116,4.941,4.941,0,0,1,2.3-1.331.71.71,0,0,0,.533-.692v-.889a.71.71,0,0,1,1.417,0v.888a.71.71,0,0,0,.533.689,4.955,4.955,0,0,1,2.3,1.334.71.71,0,0,0,.862.118l.772-.446a.71.71,0,0,1,.718,1.225h0l-.77.446a.707.707,0,0,0-.329.8Z" transform="translate(-728.976 -564.837)" fill="url(#linear-gradient-6)"/>
      </g>
    </g>
    <g id="Group_2225" data-name="Group 2225" transform="translate(0 -2.434)">
      <g id="Group_1" data-name="Group 1" transform="translate(0 137.278)">
        <path id="Path_1" data-name="Path 1" d="M391.635,644.051l4.812,4.915c-2.38,2.483-6.984,4.139-10.916,4.139a13.761,13.761,0,0,1-14.176-14.072,13.475,13.475,0,0,1,13.762-13.917c8.382,0,13.3,6.363,13.3,16.452h-19.3a6.5,6.5,0,0,0,6.364,4.863,9.682,9.682,0,0,0,6.154-2.38Zm-12.416-7.915H391.17a5.582,5.582,0,0,0-5.743-4.346,6.464,6.464,0,0,0-6.208,4.346Z" transform="translate(-371.355 -616.321)" fill="url(#linear-gradient)"/>
        <path id="Path_2" data-name="Path 2" d="M474.68,599.283h12.727c11.951,0,20.435,7.346,20.435,17.745s-8.485,17.8-20.435,17.8H474.68Zm13.71,28.61c6.777,0,11.589-4.5,11.589-10.864,0-6.312-4.811-10.813-11.589-10.813h-6.1v21.677Z" transform="translate(-441.985 -598.662)" fill="url(#linear-gradient)"/>
        <path id="Path_3" data-name="Path 3" d="M613,644.051l4.811,4.915c-2.38,2.483-6.984,4.139-10.916,4.139a13.761,13.761,0,0,1-14.176-14.072,13.475,13.475,0,0,1,13.762-13.917c8.381,0,13.3,6.363,13.3,16.452h-19.3a6.494,6.494,0,0,0,6.363,4.863,9.683,9.683,0,0,0,6.156-2.38Zm-12.416-7.915h11.951a5.582,5.582,0,0,0-5.742-4.346,6.464,6.464,0,0,0-6.21,4.346Z" transform="translate(-522.672 -616.321)" fill="url(#linear-gradient)"/>
        <path id="Path_4" data-name="Path 4" d="M735.773,635.463v17.073H728.53V636.757c0-3.1-1.966-5.277-4.76-5.277a4.843,4.843,0,0,0-5.173,4.863v16.193h-7.243V636.757c0-3.1-1.966-5.277-4.708-5.277-3.052,0-5.174,2.018-5.174,4.863v16.142h-7.554V625.737h7.554v3.518a7.832,7.832,0,0,1,7.243-4.139,9.513,9.513,0,0,1,8.485,4.863c1.4-2.949,4.708-4.863,8.691-4.863C731.479,625.116,735.773,629.41,735.773,635.463Z" transform="translate(-591.85 -616.321)" fill="url(#linear-gradient)"/>
        <path id="Path_5" data-name="Path 5" d="M866.633,636.5v15.986h-7.294V649.8a10.626,10.626,0,0,1-7.864,3.311c-5.691,0-10.089-3.415-10.089-8.537,0-5.277,4.915-8.9,11.124-8.9a19.3,19.3,0,0,1,6.829,1.345V636.5c0-2.846-1.759-5.329-6.156-5.329a15.293,15.293,0,0,0-6.933,1.914l-2.535-5.018a24.543,24.543,0,0,1,11.175-2.949C861.873,625.116,866.633,629.513,866.633,636.5Zm-7.294,7.553V641.57a16.922,16.922,0,0,0-5.743-.983c-2.742,0-4.915,1.6-4.915,3.777s1.914,3.518,4.5,3.518c2.9,0,5.64-1.348,6.158-3.831Z" transform="translate(-692.653 -616.321)" fill="url(#linear-gradient)"/>
        <path id="Path_6" data-name="Path 6" d="M966.347,635.463v17.021h-7.295V637.067c0-3.311-2.069-5.587-5.07-5.587a5.323,5.323,0,0,0-5.587,5.174l-.052-.155v15.986H940.79V625.737h7.553V629.1a9.529,9.529,0,0,1,8.071-3.984C962.208,625.116,966.347,629.41,966.347,635.463Z" transform="translate(-760.603 -616.321)" fill="url(#linear-gradient)"/>
        <path id="Path_7" data-name="Path 7" d="M1066.28,597.321v36.163h-7.553v-3.828a10.984,10.984,0,0,1-9,4.449c-7.14,0-12.313-5.794-12.313-14.021,0-8.174,5.173-13.969,12.313-13.969a10.984,10.984,0,0,1,9,4.449V597.321Zm-7.553,22.764c0-4.449-2.845-7.6-6.829-7.6-4.19,0-7.14,3.156-7.14,7.6,0,4.5,2.949,7.657,7.14,7.657,3.982,0,6.832-3.156,6.832-7.657Z" transform="translate(-826.652 -597.321)" fill="url(#linear-gradient)"/>
      </g>
      <path id="Path_12720" data-name="Path 12720" d="M-55.944,0h3.808V-7.7h3.976a8.664,8.664,0,0,0,3.752-.77,6.009,6.009,0,0,0,2.562-2.254,6.518,6.518,0,0,0,.938-3.556,6.559,6.559,0,0,0-.924-3.584,5.963,5.963,0,0,0-2.562-2.226,8.757,8.757,0,0,0-3.766-.77h-7.784Zm3.808-11.06V-17.5H-48.1a3.453,3.453,0,0,1,2.464.868,3.072,3.072,0,0,1,.924,2.352,3.082,3.082,0,0,1-.924,2.338,3.42,3.42,0,0,1-2.464.882ZM-38.108,0h3.668V-8.484a3.653,3.653,0,0,1,.966-2.7,3.39,3.39,0,0,1,2.506-.966h1.316V-15.4h-.9a5.7,5.7,0,0,0-2.464.5,3.465,3.465,0,0,0-1.652,1.82v-2.156h-3.444Zm17.92.336A8.093,8.093,0,0,0-16.156-.686a7.836,7.836,0,0,0,2.912-2.828,7.771,7.771,0,0,0,1.092-4.1A7.774,7.774,0,0,0-13.23-11.7a7.872,7.872,0,0,0-2.9-2.828,8.061,8.061,0,0,0-4.06-1.036,8.116,8.116,0,0,0-4.088,1.036,7.872,7.872,0,0,0-2.9,2.828,7.774,7.774,0,0,0-1.078,4.088,7.774,7.774,0,0,0,1.078,4.088A7.84,7.84,0,0,0-24.262-.7,8.138,8.138,0,0,0-20.188.336Zm0-3.36a4.143,4.143,0,0,1-2.2-.588A4.072,4.072,0,0,1-23.9-5.25a5.051,5.051,0,0,1-.546-2.366A4.968,4.968,0,0,1-23.9-9.968a4.2,4.2,0,0,1,1.512-1.638,4.069,4.069,0,0,1,2.2-.6,3.929,3.929,0,0,1,2.17.6,4.27,4.27,0,0,1,1.484,1.638,4.968,4.968,0,0,1,.546,2.352,5.051,5.051,0,0,1-.546,2.366,4.14,4.14,0,0,1-1.484,1.638A4,4,0,0,1-20.188-3.024ZM-5.068,0H-1.82L4.172-15.232h-4l-3.612,9.94-3.612-9.94h-4ZM6.188-16.94H9.856v-3.92H6.188ZM6.188,0H9.856V-15.232H6.188Zm14.14.336a7.147,7.147,0,0,0,2.744-.518,5.442,5.442,0,0,0,2.1-1.5V0h3.472V-21.2H24.976v7.5A6.007,6.007,0,0,0,20.3-15.568a7.446,7.446,0,0,0-3.906,1.05,7.575,7.575,0,0,0-2.758,2.856,8.159,8.159,0,0,0-1.008,4.046A8.159,8.159,0,0,0,13.636-3.57,7.61,7.61,0,0,0,16.38-.714,7.477,7.477,0,0,0,20.328.336Zm.392-3.36a4.215,4.215,0,0,1-2.212-.588A4.041,4.041,0,0,1,16.982-5.25a5.051,5.051,0,0,1-.546-2.366,4.968,4.968,0,0,1,.546-2.352,4.162,4.162,0,0,1,1.526-1.638,4.141,4.141,0,0,1,2.212-.6,4.143,4.143,0,0,1,2.2.588A4.094,4.094,0,0,1,24.43-10a5.029,5.029,0,0,1,.546,2.38,5.029,5.029,0,0,1-.546,2.38,4.094,4.094,0,0,1-1.512,1.624A4.143,4.143,0,0,1,20.72-3.024ZM39.284.336a7.765,7.765,0,0,0,4.074-1.05,5.8,5.8,0,0,0,2.45-2.674L42.84-4.844A4.019,4.019,0,0,1,41.454-3.43a3.993,3.993,0,0,1-2.142.546A3.991,3.991,0,0,1,36.54-3.892,4.006,4.006,0,0,1,35.252-6.58H46.228a3,3,0,0,0,.154-.714,8.023,8.023,0,0,0,.042-.826,7.991,7.991,0,0,0-.868-3.724,6.805,6.805,0,0,0-2.52-2.7A7.522,7.522,0,0,0,39-15.568a7.323,7.323,0,0,0-3.85,1.036,7.49,7.49,0,0,0-2.716,2.814,8.206,8.206,0,0,0-.994,4.074,8.367,8.367,0,0,0,.98,4.032A7.411,7.411,0,0,0,35.168-.728,7.814,7.814,0,0,0,39.284.336ZM39-12.544a3.456,3.456,0,0,1,2.422.882A3.329,3.329,0,0,1,42.5-9.38H35.336a3.945,3.945,0,0,1,1.3-2.338A3.584,3.584,0,0,1,39-12.544ZM49.2,0h3.668V-8.484a3.653,3.653,0,0,1,.966-2.7,3.39,3.39,0,0,1,2.506-.966h1.316V-15.4h-.9a5.7,5.7,0,0,0-2.464.5,3.465,3.465,0,0,0-1.652,1.82v-2.156H49.2Z" transform="translate(119.993 211.844)" fill="#1c47ba"/>
    </g>
  </g>
</svg>
