<svg xmlns="http://www.w3.org/2000/svg" xmlns:xlink="http://www.w3.org/1999/xlink" width="144" height="144" viewBox="0 0 144 144">
  <defs>
    <linearGradient id="linear-gradient" x1="-0.026" y1="-0.018" x2="1" y2="1.02" gradientUnits="objectBoundingBox">
      <stop offset="0" stop-color="#2051d5"/>
      <stop offset="1" stop-color="#143283"/>
    </linearGradient>
    <clipPath id="clip-sidelogo_cut">
      <rect width="144" height="144"/>
    </clipPath>
  </defs>
  <g id="sidelogo_cut" clip-path="url(#clip-sidelogo_cut)">
    <g id="login_logo" transform="translate(-416.833 -145.533)">
      <path id="Path_8" data-name="Path 8" d="M651.529,224.142a26.013,26.013,0,0,0,0-13.92h10.915a2.686,2.686,0,0,0,2.6-3.376,39.776,39.776,0,1,0-38.415,50.107h21.308a4.473,4.473,0,0,1,4.473,4.473V266.4a4.473,4.473,0,0,1-4.473,4.473H626.264a53.363,53.363,0,0,1-53.327-53.932c0-.024,0-.049,0-.073a53.69,53.69,0,0,1,107.38.314q0,1.4-.07,2.775a4.426,4.426,0,0,1-4.429,4.185Z" transform="translate(-137.793 0.351)" fill="url(#linear-gradient)"/>
      <path id="Path_9" data-name="Path 9" d="M731.525,277.322a25.852,25.852,0,0,1-46.546,15.493,2.222,2.222,0,0,1,1.77-3.562h16.936l3.977-3.977V269.368l-3.977-3.977H686.68a2.188,2.188,0,0,1-1.742-3.507,25.844,25.844,0,0,1,46.588,15.438Z" transform="translate(-214.052 -60.14)" fill="url(#linear-gradient)"/>
      <path id="Path_10" data-name="Path 10" d="M722.692,277.322a25.851,25.851,0,0,1-46.53,15.514,2.229,2.229,0,0,1,1.765-3.582H692.04a6.79,6.79,0,0,0,4.8-1.989h0a6.79,6.79,0,0,0,1.988-4.8V272.18a6.79,6.79,0,0,0-1.988-4.8h0a6.791,6.791,0,0,0-4.8-1.988H677.847a2.184,2.184,0,0,1-1.768-3.472,25.844,25.844,0,0,1,46.613,15.4Z" transform="translate(-208.007 -60.14)" fill="url(#linear-gradient)"/>
      <g id="Group_2" data-name="Group 2" transform="translate(525.213 241.51)">
        <path id="Rectangle_1" data-name="Rectangle 1" d="M8.656,0h0a8.656,8.656,0,0,1,8.656,8.656v1.712A3.208,3.208,0,0,1,14.1,13.575H3.208A3.208,3.208,0,0,1,0,10.368V8.656A8.656,8.656,0,0,1,8.656,0Z" transform="translate(0 15.787)" fill="url(#linear-gradient)"/>
        <rect id="Rectangle_2" data-name="Rectangle 2" width="11.47" height="11.47" rx="5.735" transform="translate(2.921)" fill="url(#linear-gradient)"/>
      </g>
    </g>
  </g>
</svg>
