<svg xmlns="http://www.w3.org/2000/svg" xmlns:xlink="http://www.w3.org/1999/xlink" width="437" height="144" viewBox="0 0 437 144">
  <defs>
    <linearGradient id="linear-gradient" x1="-0.026" y1="-0.018" x2="1" y2="1.02" gradientUnits="objectBoundingBox">
      <stop offset="0" stop-color="#2051d5"/>
      <stop offset="1" stop-color="#143283"/>
    </linearGradient>
    <clipPath id="clip-sidelogo_full">
      <rect width="437" height="144"/>
    </clipPath>
  </defs>
  <g id="sidelogo_full" clip-path="url(#clip-sidelogo_full)">
    <g id="login_logo" transform="translate(-411.563 -145.533)">
      <g id="Group_2219" data-name="Group 2219" transform="translate(0 -0.637)">
        <g id="Group_1" data-name="Group 1" transform="translate(585.355 180.479)">
          <path id="Path_1" data-name="Path 1" d="M391.635,644.051l4.812,4.915c-2.38,2.483-6.984,4.139-10.916,4.139a13.761,13.761,0,0,1-14.176-14.072,13.475,13.475,0,0,1,13.762-13.917c8.382,0,13.3,6.363,13.3,16.452h-19.3a6.5,6.5,0,0,0,6.364,4.863A9.682,9.682,0,0,0,391.635,644.051Zm-12.416-7.915H391.17a5.582,5.582,0,0,0-5.743-4.346A6.464,6.464,0,0,0,379.219,636.136Z" transform="translate(-371.355 -616.321)" fill="url(#linear-gradient)"/>
          <path id="Path_2" data-name="Path 2" d="M474.68,599.283h12.727c11.951,0,20.435,7.346,20.435,17.745s-8.485,17.8-20.435,17.8H474.68Zm13.71,28.61c6.777,0,11.589-4.5,11.589-10.864,0-6.312-4.811-10.813-11.589-10.813h-6.1v21.677Z" transform="translate(-441.985 -598.662)" fill="url(#linear-gradient)"/>
          <path id="Path_3" data-name="Path 3" d="M613,644.051l4.811,4.915c-2.38,2.483-6.984,4.139-10.916,4.139a13.761,13.761,0,0,1-14.176-14.072,13.475,13.475,0,0,1,13.762-13.917c8.381,0,13.3,6.363,13.3,16.452h-19.3a6.494,6.494,0,0,0,6.363,4.863A9.683,9.683,0,0,0,613,644.051Zm-12.416-7.915h11.951a5.582,5.582,0,0,0-5.742-4.346A6.464,6.464,0,0,0,600.583,636.136Z" transform="translate(-522.672 -616.321)" fill="url(#linear-gradient)"/>
          <path id="Path_4" data-name="Path 4" d="M735.773,635.463v17.073H728.53V636.757c0-3.1-1.966-5.277-4.76-5.277a4.843,4.843,0,0,0-5.173,4.863v16.193h-7.243V636.757c0-3.1-1.966-5.277-4.708-5.277-3.052,0-5.174,2.018-5.174,4.863v16.142h-7.554V625.737h7.554v3.518a7.832,7.832,0,0,1,7.243-4.139,9.513,9.513,0,0,1,8.485,4.863c1.4-2.949,4.708-4.863,8.691-4.863C731.479,625.116,735.773,629.41,735.773,635.463Z" transform="translate(-591.85 -616.321)" fill="url(#linear-gradient)"/>
          <path id="Path_5" data-name="Path 5" d="M866.633,636.5v15.986h-7.294v-2.69a10.626,10.626,0,0,1-7.864,3.311c-5.691,0-10.089-3.415-10.089-8.537,0-5.277,4.915-8.9,11.124-8.9a19.3,19.3,0,0,1,6.829,1.345V636.5c0-2.846-1.759-5.329-6.156-5.329a15.292,15.292,0,0,0-6.933,1.914l-2.535-5.018a24.543,24.543,0,0,1,11.175-2.949C861.873,625.116,866.633,629.513,866.633,636.5Zm-7.294,7.553v-2.483a16.923,16.923,0,0,0-5.743-.983c-2.742,0-4.915,1.6-4.915,3.777s1.914,3.518,4.5,3.518C856.079,647.879,858.821,646.534,859.339,644.051Z" transform="translate(-692.653 -616.321)" fill="url(#linear-gradient)"/>
          <path id="Path_6" data-name="Path 6" d="M966.347,635.463v17.021h-7.295V637.067c0-3.311-2.069-5.587-5.07-5.587a5.323,5.323,0,0,0-5.587,5.174l-.052-.155v15.986H940.79V625.737h7.553V629.1a9.529,9.529,0,0,1,8.071-3.984C962.208,625.116,966.347,629.41,966.347,635.463Z" transform="translate(-760.603 -616.321)" fill="url(#linear-gradient)"/>
          <path id="Path_7" data-name="Path 7" d="M1066.282,597.321v36.163h-7.553v-3.828a10.984,10.984,0,0,1-9,4.449c-7.14,0-12.313-5.794-12.313-14.021,0-8.174,5.173-13.969,12.313-13.969a10.984,10.984,0,0,1,9,4.449V597.321Zm-7.553,22.764c0-4.449-2.845-7.605-6.829-7.605-4.19,0-7.14,3.156-7.14,7.605,0,4.5,2.949,7.657,7.14,7.657C1055.884,627.741,1058.729,624.586,1058.729,620.085Z" transform="translate(-826.652 -597.321)" fill="url(#linear-gradient)"/>
        </g>
        <path id="Path_12294" data-name="Path 12294" d="M2.112,0h1.92V-8.04h9.6V0h1.92V-17.88h-1.92v8.04h-9.6v-8.04H2.112ZM25.536.288a6.365,6.365,0,0,0,3.276-.864,6.509,6.509,0,0,0,2.364-2.388,6.808,6.808,0,0,0,.888-3.492,6.917,6.917,0,0,0-.852-3.456,6.265,6.265,0,0,0-2.328-2.376,6.5,6.5,0,0,0-3.348-.864,6.434,6.434,0,0,0-3.348.876,6.445,6.445,0,0,0-2.34,2.388,6.793,6.793,0,0,0-.864,3.432,6.833,6.833,0,0,0,.876,3.468,6.481,6.481,0,0,0,2.364,2.4A6.406,6.406,0,0,0,25.536.288Zm0-1.8A4.347,4.347,0,0,1,23.2-2.16a4.755,4.755,0,0,1-1.668-1.776,5.118,5.118,0,0,1-.624-2.52,4.983,4.983,0,0,1,.624-2.5A4.807,4.807,0,0,1,23.2-10.7a4.347,4.347,0,0,1,2.34-.648,4.347,4.347,0,0,1,2.34.648,4.711,4.711,0,0,1,1.656,1.752,5.061,5.061,0,0,1,.612,2.5,5.2,5.2,0,0,1-.612,2.52A4.663,4.663,0,0,1,27.876-2.16,4.347,4.347,0,0,1,25.536-1.512ZM35.232,0h1.8V-7.656a3.775,3.775,0,0,1,.936-2.712,3.082,3.082,0,0,1,2.328-.984,3.024,3.024,0,0,1,2.3.972,3.827,3.827,0,0,1,.912,2.724V0h1.8V-7.656a3.775,3.775,0,0,1,.936-2.712,3.082,3.082,0,0,1,2.328-.984,3.024,3.024,0,0,1,2.3.972,3.827,3.827,0,0,1,.912,2.724V0h1.8V-8.352a4.662,4.662,0,0,0-.66-2.46,4.8,4.8,0,0,0-1.752-1.716,4.73,4.73,0,0,0-2.388-.624,4.73,4.73,0,0,0-2.388.624A4.065,4.065,0,0,0,44.736-10.7a4.653,4.653,0,0,0-1.7-1.776,4.574,4.574,0,0,0-2.424-.672,4.389,4.389,0,0,0-2.052.492,3.958,3.958,0,0,0-1.524,1.38v-1.584h-1.8ZM62.88.288a6.347,6.347,0,0,0,2.412-.444,6.164,6.164,0,0,0,1.884-1.176,4.876,4.876,0,0,0,1.176-1.6l-1.536-.816a5.4,5.4,0,0,1-1.56,1.68,4.042,4.042,0,0,1-2.376.672,4.428,4.428,0,0,1-2.16-.552,4.481,4.481,0,0,1-1.644-1.548,4.651,4.651,0,0,1-.684-2.388H68.52q.048-.312.072-.612t.024-.54a6.362,6.362,0,0,0-.408-2.244,6.312,6.312,0,0,0-1.176-1.968,5.654,5.654,0,0,0-1.86-1.392,5.747,5.747,0,0,0-2.484-.516,5.9,5.9,0,0,0-3.156.864,6.194,6.194,0,0,0-2.22,2.364A7.092,7.092,0,0,0,56.5-6.48,7.133,7.133,0,0,0,57.336-3,6.274,6.274,0,0,0,59.628-.588,6.172,6.172,0,0,0,62.88.288Zm-.192-11.76a3.983,3.983,0,0,1,1.98.5,3.907,3.907,0,0,1,1.44,1.38,3.947,3.947,0,0,1,.564,2.028H58.44A4.5,4.5,0,0,1,59.2-9.636a4.263,4.263,0,0,1,1.524-1.356A4.162,4.162,0,0,1,62.688-11.472ZM80.328.288A5.7,5.7,0,0,0,82.7-.18a3.882,3.882,0,0,0,1.62-1.308,3.227,3.227,0,0,0,.588-1.9,3.239,3.239,0,0,0-.876-2.256A5.172,5.172,0,0,0,81.6-7.056L79.464-7.68a6.529,6.529,0,0,1-.78-.288,2.177,2.177,0,0,1-.78-.576,1.512,1.512,0,0,1-.336-1.032,1.751,1.751,0,0,1,.648-1.392,2.575,2.575,0,0,1,1.728-.552,3.485,3.485,0,0,1,2,.612,3.913,3.913,0,0,1,1.38,1.692l1.536-.72A4.6,4.6,0,0,0,82.98-12.3a5.386,5.386,0,0,0-2.964-.852,5.132,5.132,0,0,0-2.184.456,3.767,3.767,0,0,0-1.56,1.3A3.394,3.394,0,0,0,75.7-9.432a3.124,3.124,0,0,0,.792,2.112A5.206,5.206,0,0,0,79.056-5.9l1.848.528a6,6,0,0,1,.888.312,2.716,2.716,0,0,1,.888.612,1.469,1.469,0,0,1,.384,1.068,1.734,1.734,0,0,1-.792,1.476,3.265,3.265,0,0,1-1.944.564,3.75,3.75,0,0,1-2.2-.7,4.632,4.632,0,0,1-1.548-1.872l-1.512.72A5.3,5.3,0,0,0,77.088-.648,5.668,5.668,0,0,0,80.328.288Zm13.608,0a6.347,6.347,0,0,0,2.412-.444,6.164,6.164,0,0,0,1.884-1.176,4.876,4.876,0,0,0,1.176-1.6l-1.536-.816a5.4,5.4,0,0,1-1.56,1.68,4.042,4.042,0,0,1-2.376.672,4.428,4.428,0,0,1-2.16-.552,4.481,4.481,0,0,1-1.644-1.548,4.651,4.651,0,0,1-.684-2.388H99.576q.048-.312.072-.612t.024-.54a6.363,6.363,0,0,0-.408-2.244,6.312,6.312,0,0,0-1.176-1.968,5.655,5.655,0,0,0-1.86-1.392,5.747,5.747,0,0,0-2.484-.516,5.9,5.9,0,0,0-3.156.864,6.194,6.194,0,0,0-2.22,2.364,7.092,7.092,0,0,0-.816,3.444A7.133,7.133,0,0,0,88.392-3,6.274,6.274,0,0,0,90.684-.588,6.172,6.172,0,0,0,93.936.288Zm-.192-11.76a3.983,3.983,0,0,1,1.98.5,3.907,3.907,0,0,1,1.44,1.38,3.947,3.947,0,0,1,.564,2.028H89.5a4.5,4.5,0,0,1,.756-2.076,4.263,4.263,0,0,1,1.524-1.356A4.162,4.162,0,0,1,93.744-11.472ZM102.84,0h1.8V-7.92a3.367,3.367,0,0,1,.84-2.448,2.971,2.971,0,0,1,2.232-.864h1.128v-1.8h-.816a4.656,4.656,0,0,0-2.028.408,3.348,3.348,0,0,0-1.356,1.152v-1.392h-1.8Zm11.544,0h1.8l5.064-12.864h-2.04L115.3-2.448l-3.912-10.416h-2.016Zm8.976-15.24h1.8v-2.64h-1.8Zm0,15.24h1.8V-12.864h-1.8Zm11.376.288a5.9,5.9,0,0,0,2.256-.432,6.285,6.285,0,0,0,1.872-1.176A4.932,4.932,0,0,0,140.088-3l-1.632-.888A4.137,4.137,0,0,1,136.98-2.16a3.951,3.951,0,0,1-2.244.648,4.184,4.184,0,0,1-2.292-.648,4.568,4.568,0,0,1-1.608-1.764,5.3,5.3,0,0,1-.588-2.508,5.349,5.349,0,0,1,.588-2.532,4.478,4.478,0,0,1,1.608-1.752,4.243,4.243,0,0,1,2.292-.636,4.008,4.008,0,0,1,2.256.648,4.006,4.006,0,0,1,1.464,1.68l1.632-.84a4.755,4.755,0,0,0-1.224-1.692,6.416,6.416,0,0,0-1.872-1.164,5.9,5.9,0,0,0-2.256-.432,6.29,6.29,0,0,0-3.336.876,6.172,6.172,0,0,0-2.256,2.388,7.11,7.11,0,0,0-.816,3.432,7.18,7.18,0,0,0,.816,3.444A6.238,6.238,0,0,0,131.4-.6,6.225,6.225,0,0,0,134.736.288Zm14.376,0a6.347,6.347,0,0,0,2.412-.444,6.164,6.164,0,0,0,1.884-1.176,4.876,4.876,0,0,0,1.176-1.6l-1.536-.816a5.4,5.4,0,0,1-1.56,1.68,4.042,4.042,0,0,1-2.376.672,4.428,4.428,0,0,1-2.16-.552,4.481,4.481,0,0,1-1.644-1.548,4.651,4.651,0,0,1-.684-2.388h10.128q.048-.312.072-.612t.024-.54a6.362,6.362,0,0,0-.408-2.244,6.312,6.312,0,0,0-1.176-1.968,5.655,5.655,0,0,0-1.86-1.392,5.747,5.747,0,0,0-2.484-.516,5.9,5.9,0,0,0-3.156.864,6.194,6.194,0,0,0-2.22,2.364,7.092,7.092,0,0,0-.816,3.444,7.133,7.133,0,0,0,.84,3.48A6.274,6.274,0,0,0,145.86-.588,6.172,6.172,0,0,0,149.112.288Zm-.192-11.76a3.983,3.983,0,0,1,1.98.5,3.907,3.907,0,0,1,1.44,1.38A3.947,3.947,0,0,1,152.9-7.56h-8.232a4.5,4.5,0,0,1,.756-2.076,4.263,4.263,0,0,1,1.524-1.356A4.162,4.162,0,0,1,148.92-11.472Z" transform="translate(626.855 255.903)" fill="url(#linear-gradient)"/>
      </g>
      <path id="Path_8" data-name="Path 8" d="M651.529,224.142a26.013,26.013,0,0,0,0-13.92h10.915a2.686,2.686,0,0,0,2.6-3.376,39.776,39.776,0,1,0-38.415,50.107h21.308a4.473,4.473,0,0,1,4.473,4.473V266.4a4.473,4.473,0,0,1-4.473,4.473H626.264a53.363,53.363,0,0,1-53.327-53.932c0-.024,0-.049,0-.073a53.69,53.69,0,0,1,107.38.314q0,1.4-.07,2.775a4.426,4.426,0,0,1-4.429,4.185Z" transform="translate(-137.793 0.351)" fill="url(#linear-gradient)"/>
      <path id="Path_9" data-name="Path 9" d="M731.525,277.322a25.852,25.852,0,0,1-46.546,15.493,2.222,2.222,0,0,1,1.77-3.562h16.936l3.977-3.977V269.368l-3.977-3.977H686.68a2.188,2.188,0,0,1-1.742-3.507,25.844,25.844,0,0,1,46.588,15.438Z" transform="translate(-214.052 -60.14)" fill="url(#linear-gradient)"/>
      <path id="Path_10" data-name="Path 10" d="M722.692,277.322a25.851,25.851,0,0,1-46.53,15.514,2.229,2.229,0,0,1,1.765-3.582H692.04a6.79,6.79,0,0,0,4.8-1.989h0a6.79,6.79,0,0,0,1.988-4.8V272.18a6.79,6.79,0,0,0-1.988-4.8h0a6.791,6.791,0,0,0-4.8-1.988H677.847a2.184,2.184,0,0,1-1.768-3.472,25.844,25.844,0,0,1,46.613,15.4Z" transform="translate(-208.007 -60.14)" fill="url(#linear-gradient)"/>
      <g id="Group_2" data-name="Group 2" transform="translate(525.213 241.51)">
        <path id="Rectangle_1" data-name="Rectangle 1" d="M8.656,0h0a8.656,8.656,0,0,1,8.656,8.656v1.712A3.208,3.208,0,0,1,14.1,13.575H3.208A3.208,3.208,0,0,1,0,10.368V8.656A8.656,8.656,0,0,1,8.656,0Z" transform="translate(0 15.787)" fill="url(#linear-gradient)"/>
        <rect id="Rectangle_2" data-name="Rectangle 2" width="11.47" height="11.47" rx="5.735" transform="translate(2.921)" fill="url(#linear-gradient)"/>
      </g>
    </g>
  </g>
</svg>
